# xmcd
#
# Track frame offsets:
#	150
#	16670
#	41222
#	61720
#	83350
#	102382
#	127305
#	144502
#	169270
#	190002
#	212300
#
# Disc length: 3189 seconds
# Revision: 0
# Processed by: cddbd v1.5.2PL0 Copyright (c) Steve Scherf et al.
# Submitted via: dBpowerAMP V12.0
#
DISCID=8b0c730b
DTITLE=Rita Coolidge - Love Lessons
DYEAR=1992
DGENRE=Pop/Rock
TTITLE0=Heart Don't Fail Me Now
TTITLE1=Just A Kiss Away
TTITLE2=Nobody But You
TTITLE3=If You Find It
TTITLE4=Love Lessons
TTITLE5=Ain't No Reason
TTITLE6=You've Got The Best Of Me
TTITLE7=Girlfriend
TTITLE8=One Heartbeat
TTITLE9=I Want To Know What Love Is
TTITLE10=Cherokee
EXTD=
EXTT0=
EXTT1=
EXTT2=
EXTT3=
EXTT4=
EXTT5=
EXTT6=
EXTT7=
EXTT8=
EXTT9=
EXTT10=
PLAYORDER=
